<?xml version="1.0" encoding="UTF-8" standalone="no"?>
<svg
   xmlns:dc="http://purl.org/dc/elements/1.1/"
   xmlns:cc="http://creativecommons.org/ns#"
   xmlns:rdf="http://www.w3.org/1999/02/22-rdf-syntax-ns#"
   xmlns:svg="http://www.w3.org/2000/svg"
   xmlns="http://www.w3.org/2000/svg"
   xmlns:sodipodi="http://sodipodi.sourceforge.net/DTD/sodipodi-0.dtd"
   xmlns:inkscape="http://www.inkscape.org/namespaces/inkscape"
   width="67.73333mm"
   height="67.73333mm"
   viewBox="0 0 67.73333 67.73333"
   version="1.1"
   id="svg8"
   inkscape:version="1.0 (4035a4f, 2020-05-01)"
   sodipodi:docname="favicon.svg"
   inkscape:export-filename="./favicon_256.png"
   inkscape:export-xdpi="96"
   inkscape:export-ydpi="96">
  <defs
     id="defs2" />
  <sodipodi:namedview
     id="base"
     pagecolor="#d2d2d2"
     bordercolor="#666666"
     borderopacity="1.0"
     inkscape:pageopacity="0"
     inkscape:pageshadow="2"
     inkscape:zoom="1.3397092"
     inkscape:cx="134.70401"
     inkscape:cy="160.41163"
     inkscape:document-units="mm"
     inkscape:current-layer="layer1"
     showgrid="false"
     inkscape:window-width="1366"
     inkscape:window-height="744"
     inkscape:window-x="0"
     inkscape:window-y="0"
     inkscape:window-maximized="1"
     inkscape:document-rotation="0" />
  <metadata
     id="metadata5">
    <rdf:RDF>
      <cc:Work
         rdf:about="">
        <dc:format>image/svg+xml</dc:format>
        <dc:type
           rdf:resource="http://purl.org/dc/dcmitype/StillImage" />
        <dc:title />
      </cc:Work>
    </rdf:RDF>
  </metadata>
  <g
     inkscape:label="Capa 1"
     inkscape:groupmode="layer"
     id="layer1"
     transform="translate(79.170273,-16.778708)">
    <path
       sodipodi:nodetypes="sssssssss"
       d="m -65.732384,16.778708 h 40.857552 c 7.44459,0 13.437889,5.993298 13.437889,13.437889 v 40.857551 c 0,7.444591 -5.993299,13.437889 -13.437889,13.437889 h -40.857552 c -7.44459,0 -13.437889,-5.993298 -13.437889,-13.437889 V 30.216597 c 0,-7.444591 5.993299,-13.437889 13.437889,-13.437889 z"
       style="fill:#ffffff;fill-rule:evenodd;stroke-width:1.74285;stroke-linecap:round;stroke-opacity:0.994789;stop-color:#000000"
       id="rect7" />
    <g
       transform="matrix(1.9692308,0,0,1.9692308,76.729669,-12.69365)"
       id="g35" />
    <g
       transform="translate(-0.975261)"
       id="g23">
      <path
         id="rect12"
         style="fill:#d45500;fill-rule:evenodd;stroke-width:0.380738;stroke-linecap:round;stroke-opacity:0.994789;stop-color:#000000"
         d="m -68.860961,25.20101 h 8.925621 c 1.626323,0 2.935602,1.309278 2.935602,2.935602 v 45.017521 c 0,1.626323 -1.309279,2.935602 -2.935602,2.935602 h -8.925621 c -1.626324,0 -2.935602,-1.309279 -2.935602,-2.935602 V 28.136612 c 0,-1.626324 1.309278,-2.935602 2.935602,-2.935602 z"
         sodipodi:nodetypes="sssssssss" />
      <path
         sodipodi:nodetypes="sssssssss"
         d="m -48.791157,25.20101 h 8.92562 c 1.626324,0 2.935603,1.309278 2.935603,2.935602 v 45.017521 c 0,1.626323 -1.309279,2.935602 -2.935603,2.935602 h -8.92562 c -1.626324,0 -2.935602,-1.309279 -2.935602,-2.935602 V 28.136612 c 0,-1.626324 1.309278,-2.935602 2.935602,-2.935602 z"
         style="fill:#008080;fill-rule:evenodd;stroke-width:0.380738;stroke-linecap:round;stroke-opacity:0.994789;stop-color:#000000"
         id="path16" />
      <path
         id="path18"
         style="fill:#aa0000;fill-rule:evenodd;stroke-width:0.380738;stroke-linecap:round;stroke-opacity:0.994789;stop-color:#000000"
         d="m -28.721354,25.20101 h 8.92562 c 1.626324,0 2.935603,1.309278 2.935603,2.935602 v 45.017521 c 0,1.626323 -1.309279,2.935602 -2.935603,2.935602 h -8.92562 c -1.626324,0 -2.935602,-1.309279 -2.935602,-2.935602 V 28.136612 c 0,-1.626324 1.309278,-2.935602 2.935602,-2.935602 z"
         sodipodi:nodetypes="sssssssss" />
    </g>
  </g>
</svg>
