<?xml version="1.0" encoding="UTF-8" standalone="no"?>
<svg
   xmlns:dc="http://purl.org/dc/elements/1.1/"
   xmlns:cc="http://creativecommons.org/ns#"
   xmlns:rdf="http://www.w3.org/1999/02/22-rdf-syntax-ns#"
   xmlns:svg="http://www.w3.org/2000/svg"
   xmlns="http://www.w3.org/2000/svg"
   xmlns:sodipodi="http://sodipodi.sourceforge.net/DTD/sodipodi-0.dtd"
   xmlns:inkscape="http://www.inkscape.org/namespaces/inkscape"
   inkscape:export-ydpi="96"
   inkscape:export-xdpi="96"
   inkscape:export-filename="./favicon_256.png"
   sodipodi:docname="logo_iso.svg"
   inkscape:version="1.0 (4035a4f, 2020-05-01)"
   id="svg8"
   version="1.1"
   viewBox="0 0 80.462615 73.467643"
   height="73.467644mm"
   width="80.462616mm">
  <defs
     id="defs2" />
  <sodipodi:namedview
     inkscape:document-rotation="0"
     inkscape:window-maximized="1"
     inkscape:window-y="0"
     inkscape:window-x="0"
     inkscape:window-height="744"
     inkscape:window-width="1366"
     showgrid="false"
     inkscape:current-layer="layer1"
     inkscape:document-units="mm"
     inkscape:cy="244.19245"
     inkscape:cx="423.14194"
     inkscape:zoom="0.34650128"
     inkscape:pageshadow="2"
     inkscape:pageopacity="0"
     borderopacity="1.0"
     bordercolor="#666666"
     pagecolor="#d2d2d2"
     id="base"
     inkscape:snap-bbox="true"
     inkscape:bbox-paths="true"
     inkscape:snap-bbox-edge-midpoints="true"
     inkscape:bbox-nodes="true"
     inkscape:snap-bbox-midpoints="true"
     inkscape:snap-global="false" />
  <metadata
     id="metadata5">
    <rdf:RDF>
      <cc:Work
         rdf:about="">
        <dc:format>image/svg+xml</dc:format>
        <dc:type
           rdf:resource="http://purl.org/dc/dcmitype/StillImage" />
        <dc:title />
      </cc:Work>
    </rdf:RDF>
  </metadata>
  <g
     transform="translate(236.64055,40.661701)"
     id="layer1"
     inkscape:groupmode="layer"
     inkscape:label="Capa 1">
    <rect
       ry="0"
       y="-40.661701"
       x="-236.64055"
       height="73.467644"
       width="80.462616"
       id="rect29"
       style="fill:#ffffff;fill-rule:evenodd;stroke-width:8.7104;stroke-linecap:square;paint-order:stroke fill markers;stop-color:#000000" />
    <g
       transform="matrix(0.91157065,0,0,0.91157065,-156.00082,-50.094714)"
       id="g23">
      <path
         id="rect12"
         style="fill:#d45500;fill-rule:evenodd;stroke-width:0.380738;stroke-linecap:round;stroke-opacity:0.994789;stop-color:#000000"
         d="m -68.860961,25.20101 h 8.925621 c 1.626323,0 2.935602,1.309278 2.935602,2.935602 v 45.017521 c 0,1.626323 -1.309279,2.935602 -2.935602,2.935602 h -8.925621 c -1.626324,0 -2.935602,-1.309279 -2.935602,-2.935602 V 28.136612 c 0,-1.626324 1.309278,-2.935602 2.935602,-2.935602 z"
         sodipodi:nodetypes="sssssssss" />
      <path
         sodipodi:nodetypes="sssssssss"
         d="m -48.791157,25.20101 h 8.92562 c 1.626324,0 2.935603,1.309278 2.935603,2.935602 v 45.017521 c 0,1.626323 -1.309279,2.935602 -2.935603,2.935602 h -8.92562 c -1.626324,0 -2.935602,-1.309279 -2.935602,-2.935602 V 28.136612 c 0,-1.626324 1.309278,-2.935602 2.935602,-2.935602 z"
         style="fill:#008080;fill-rule:evenodd;stroke-width:0.380738;stroke-linecap:round;stroke-opacity:0.994789;stop-color:#000000"
         id="path16" />
      <path
         id="path18"
         style="fill:#aa0000;fill-rule:evenodd;stroke-width:0.380738;stroke-linecap:round;stroke-opacity:0.994789;stop-color:#000000"
         d="m -28.721354,25.20101 h 8.92562 c 1.626324,0 2.935603,1.309278 2.935603,2.935602 v 45.017521 c 0,1.626323 -1.309279,2.935602 -2.935603,2.935602 h -8.92562 c -1.626324,0 -2.935602,-1.309279 -2.935602,-2.935602 V 28.136612 c 0,-1.626324 1.309278,-2.935602 2.935602,-2.935602 z"
         sodipodi:nodetypes="sssssssss" />
    </g>
  </g>
</svg>
