<?xml version="1.0" encoding="UTF-8" standalone="no"?>
<svg
   xmlns:dc="http://purl.org/dc/elements/1.1/"
   xmlns:cc="http://creativecommons.org/ns#"
   xmlns:rdf="http://www.w3.org/1999/02/22-rdf-syntax-ns#"
   xmlns:svg="http://www.w3.org/2000/svg"
   xmlns="http://www.w3.org/2000/svg"
   xmlns:sodipodi="http://sodipodi.sourceforge.net/DTD/sodipodi-0.dtd"
   xmlns:inkscape="http://www.inkscape.org/namespaces/inkscape"
   width="264.58334mm"
   height="97.436554mm"
   viewBox="0 0 264.58334 97.436553"
   version="1.1"
   id="svg8"
   inkscape:version="1.0 (4035a4f, 2020-05-01)"
   sodipodi:docname="logo_lojban_share.svg"
   inkscape:export-filename="./favicon_256.png"
   inkscape:export-xdpi="96"
   inkscape:export-ydpi="96">
  <defs
     id="defs2" />
  <sodipodi:namedview
     inkscape:snap-global="false"
     inkscape:snap-bbox-midpoints="true"
     inkscape:bbox-nodes="true"
     inkscape:snap-bbox-edge-midpoints="true"
     inkscape:bbox-paths="true"
     inkscape:snap-bbox="true"
     id="base"
     pagecolor="#d2d2d2"
     bordercolor="#666666"
     borderopacity="1.0"
     inkscape:pageopacity="0"
     inkscape:pageshadow="2"
     inkscape:zoom="0.36069246"
     inkscape:cx="493.89077"
     inkscape:cy="289.48803"
     inkscape:document-units="mm"
     inkscape:current-layer="layer1"
     showgrid="false"
     inkscape:window-width="1366"
     inkscape:window-height="744"
     inkscape:window-x="0"
     inkscape:window-y="0"
     inkscape:window-maximized="1"
     inkscape:document-rotation="0" />
  <metadata
     id="metadata5">
    <rdf:RDF>
      <cc:Work
         rdf:about="">
        <dc:format>image/svg+xml</dc:format>
        <dc:type
           rdf:resource="http://purl.org/dc/dcmitype/StillImage" />
        <dc:title />
      </cc:Work>
    </rdf:RDF>
  </metadata>
  <g
     inkscape:label="Capa 1"
     inkscape:groupmode="layer"
     id="layer1"
     transform="translate(255.35951,52.646156)">
    <rect
       style="fill:#ffffff;fill-rule:evenodd;stroke-width:18.1901;stroke-linecap:square;paint-order:stroke fill markers;stop-color:#000000"
       id="rect29"
       width="264.58334"
       height="97.436554"
       x="-255.35951"
       y="-52.646156"
       ry="0" />
    <g
       id="g23"
       transform="matrix(0.91157065,0,0,0.91157065,-156.1743,-50.094714)">
      <path
         sodipodi:nodetypes="sssssssss"
         d="m -68.860961,25.20101 h 8.925621 c 1.626323,0 2.935602,1.309278 2.935602,2.935602 v 45.017521 c 0,1.626323 -1.309279,2.935602 -2.935602,2.935602 h -8.925621 c -1.626324,0 -2.935602,-1.309279 -2.935602,-2.935602 V 28.136612 c 0,-1.626324 1.309278,-2.935602 2.935602,-2.935602 z"
         style="fill:#d45500;fill-rule:evenodd;stroke-width:0.380738;stroke-linecap:round;stroke-opacity:0.994789;stop-color:#000000"
         id="rect12" />
      <path
         id="path16"
         style="fill:#008080;fill-rule:evenodd;stroke-width:0.380738;stroke-linecap:round;stroke-opacity:0.994789;stop-color:#000000"
         d="m -48.791157,25.20101 h 8.92562 c 1.626324,0 2.935603,1.309278 2.935603,2.935602 v 45.017521 c 0,1.626323 -1.309279,2.935602 -2.935603,2.935602 h -8.92562 c -1.626324,0 -2.935602,-1.309279 -2.935602,-2.935602 V 28.136612 c 0,-1.626324 1.309278,-2.935602 2.935602,-2.935602 z"
         sodipodi:nodetypes="sssssssss" />
      <path
         sodipodi:nodetypes="sssssssss"
         d="m -28.721354,25.20101 h 8.92562 c 1.626324,0 2.935603,1.309278 2.935603,2.935602 v 45.017521 c 0,1.626323 -1.309279,2.935602 -2.935603,2.935602 h -8.92562 c -1.626324,0 -2.935602,-1.309279 -2.935602,-2.935602 V 28.136612 c 0,-1.626324 1.309278,-2.935602 2.935602,-2.935602 z"
         style="fill:#aa0000;fill-rule:evenodd;stroke-width:0.380738;stroke-linecap:round;stroke-opacity:0.994789;stop-color:#000000"
         id="path18" />
    </g>
    <g
       transform="translate(0,37.396865)"
       style="font-style:normal;font-weight:normal;font-size:23.3559px;line-height:0.8;font-family:sans-serif;fill:#000000;fill-opacity:1;stroke:none;stroke-width:0.583899"
       id="text43"
       aria-label="TABLA
COMPARATIVA">
      <path
         id="path51"
         style="font-style:normal;font-variant:normal;font-weight:bold;font-stretch:normal;font-family:Asap;-inkscape-font-specification:'Asap Bold';stroke-width:0.583899"
         d="m -158.07969,-43.161021 q -1.40135,0 -1.40135,-0.747389 v -12.58883 h -3.71359 q -0.70068,0 -0.70068,-1.167795 v -0.724033 q 0,-1.167795 0.70068,-1.167795 h 11.04734 q 0.70068,0 0.70068,1.167795 v 0.724033 q 0,1.167795 -0.70068,1.167795 h -3.71359 v 12.58883 q 0,0.747389 -1.40135,0.747389 z" />
      <path
         id="path53"
         style="font-style:normal;font-variant:normal;font-weight:bold;font-stretch:normal;font-family:Asap;-inkscape-font-specification:'Asap Bold';stroke-width:0.583899"
         d="m -150.75141,-43.161021 q -1.42471,0 -1.42471,-0.51383 0,-0.09342 0.0234,-0.186847 0.0467,-0.11678 0.0701,-0.233559 l 5.1383,-15.017844 q 0.18685,-0.490474 1.33129,-0.490474 h 1.21451 q 1.16779,0 1.33128,0.490474 l 5.1383,15.017844 q 0.0701,0.233559 0.0701,0.420406 0,0.51383 -1.1678,0.51383 h -1.02766 q -0.51383,0 -0.86417,-0.09342 -0.35033,-0.116779 -0.44376,-0.39705 l -0.93423,-2.84942 h -5.512 l -0.93423,2.84942 q -0.0934,0.256915 -0.3737,0.373694 -0.28027,0.11678 -0.70067,0.11678 z m 3.94715,-6.422873 h 3.50338 l -1.33128,-4.15735 q -0.11678,-0.373694 -0.21021,-0.747389 -0.0701,-0.373694 -0.14013,-0.747389 h -0.0934 q -0.0701,0.373695 -0.14013,0.747389 -0.0701,0.373695 -0.2102,0.747389 z" />
      <path
         id="path55"
         style="font-style:normal;font-variant:normal;font-weight:bold;font-stretch:normal;font-family:Asap;-inkscape-font-specification:'Asap Bold';stroke-width:0.583899"
         d="m -135.1431,-43.207733 q -0.93423,0 -0.93423,-0.934236 v -14.480658 q 0,-0.934236 0.93423,-0.934236 h 4.62447 q 2.9662,0 4.22742,1.144439 1.28457,1.144439 1.28457,2.989555 0,0.794101 -0.35034,1.494778 -0.32698,0.700677 -0.91088,1.237863 -0.56054,0.513829 -1.26121,0.817456 l 0.0234,0.09342 q 0.56054,0.116779 1.02766,0.373694 0.49047,0.256915 0.88752,0.630609 0.39706,0.350339 0.65397,0.817457 0.28027,0.443762 0.42041,0.957592 0.16349,0.513829 0.16349,1.051015 0,2.265522 -1.44807,3.503385 -1.42471,1.237863 -4.39091,1.237863 z m 2.66257,-3.059623 h 2.28888 q 1.02766,0 1.5882,-0.490474 0.56055,-0.490474 0.56055,-1.401354 0,-0.91088 -0.65397,-1.354642 -0.65397,-0.467118 -1.86847,-0.467118 h -1.91519 z m 0,-6.773211 h 1.61156 q 1.05102,0 1.61156,-0.51383 0.56054,-0.51383 0.56054,-1.237862 0,-0.864169 -0.53719,-1.284575 -0.51383,-0.443762 -1.5882,-0.443762 h -1.65827 z" />
      <path
         id="path57"
         style="font-style:normal;font-variant:normal;font-weight:bold;font-stretch:normal;font-family:Asap;-inkscape-font-specification:'Asap Bold';stroke-width:0.583899"
         d="m -121.27553,-43.207733 q -0.93424,0 -0.93424,-0.934236 v -14.714217 q 0,-0.747389 1.40135,-0.747389 h 0.79411 q 1.40135,0 1.40135,0.747389 v 12.58883 h 5.04487 q 0.70068,0 0.70068,1.167795 v 0.724033 q 0,1.167795 -0.70068,1.167795 z" />
      <path
         id="path59"
         style="font-style:normal;font-variant:normal;font-weight:bold;font-stretch:normal;font-family:Asap;-inkscape-font-specification:'Asap Bold';stroke-width:0.583899"
         d="m -111.2471,-43.161021 q -1.42471,0 -1.42471,-0.51383 0,-0.09342 0.0234,-0.186847 0.0467,-0.11678 0.0701,-0.233559 l 5.1383,-15.017844 q 0.18684,-0.490474 1.33128,-0.490474 h 1.21451 q 1.16779,0 1.33128,0.490474 l 5.138303,15.017844 q 0.07007,0.233559 0.07007,0.420406 0,0.51383 -1.167795,0.51383 h -1.027658 q -0.51383,0 -0.86417,-0.09342 -0.35034,-0.116779 -0.44376,-0.39705 l -0.93424,-2.84942 h -5.51199 l -0.93424,2.84942 q -0.0934,0.256915 -0.37369,0.373694 -0.28027,0.11678 -0.70068,0.11678 z m 3.94715,-6.422873 h 3.50339 l -1.33129,-4.15735 q -0.11678,-0.373694 -0.2102,-0.747389 -0.0701,-0.373694 -0.14014,-0.747389 h -0.0934 q -0.0701,0.373695 -0.14014,0.747389 -0.0701,0.373695 -0.2102,0.747389 z" />
      <path
         id="path61"
         style="font-style:normal;font-variant:normal;font-weight:bold;font-stretch:normal;font-family:Asap;-inkscape-font-specification:'Asap Bold';stroke-width:0.583899"
         d="m -155.34705,-23.045913 q -3.92379,0 -5.81562,-2.031964 -1.86847,-2.055319 -1.86847,-6.37616 0,-8.314701 7.80087,-8.314701 0.74739,0 1.54149,0.11678 0.81746,0.09342 1.54149,0.303626 0.72403,0.186848 1.19115,0.467118 0.60726,0.350339 0.60726,0.747389 0,0.326983 -0.25692,0.864169 -0.25691,0.513829 -0.60725,0.934236 -0.35034,0.39705 -0.65397,0.39705 -0.14013,0 -0.53718,-0.186847 -0.3737,-0.186848 -1.07437,-0.373695 -0.70068,-0.186847 -1.82176,-0.186847 -2.05532,0 -3.05963,1.30793 -0.98095,1.307931 -0.98095,3.947147 0,2.615861 0.98095,3.970503 1.00431,1.354643 3.01291,1.354643 1.12109,0 1.89183,-0.233559 0.7941,-0.233559 1.28458,-0.467118 0.49047,-0.233559 0.65396,-0.233559 0.3737,0 0.67732,0.420406 0.32698,0.420406 0.51383,0.91088 0.18685,0.490474 0.18685,0.700677 0,0.326983 -0.23356,0.607253 -0.2102,0.256915 -0.5839,0.467118 -0.56054,0.303627 -1.35464,0.51383 -0.77074,0.186847 -1.5882,0.280271 -0.7941,0.09342 -1.44807,0.09342 z" />
      <path
         id="path63"
         style="font-style:normal;font-variant:normal;font-weight:bold;font-stretch:normal;font-family:Asap;-inkscape-font-specification:'Asap Bold';stroke-width:0.583899"
         d="m -141.52948,-23.045913 q -3.59681,0 -5.5587,-2.148743 -1.93854,-2.172099 -1.93854,-6.21267 0,-4.04057 1.93854,-6.189313 1.96189,-2.172099 5.5587,-2.172099 3.62017,0 5.53535,2.172099 1.93854,2.148743 1.93854,6.189313 0,4.040571 -1.93854,6.21267 -1.91518,2.148743 -5.53535,2.148743 z m 0,-3.059623 q 1.86847,0 2.82607,-1.354643 0.95759,-1.377998 0.95759,-3.947147 0,-2.569149 -0.95759,-3.923791 -0.9576,-1.354642 -2.82607,-1.354642 -1.86847,0 -2.84942,1.354642 -0.95759,1.354642 -0.95759,3.923791 0,2.569149 0.95759,3.947147 0.98095,1.354643 2.84942,1.354643 z" />
      <path
         id="path65"
         style="font-style:normal;font-variant:normal;font-weight:bold;font-stretch:normal;font-family:Asap;-inkscape-font-specification:'Asap Bold';stroke-width:0.583899"
         d="m -123.51113,-27.133196 q -0.60726,0 -0.93424,-0.443762 l -2.87277,-5.138298 q -0.14014,-0.233559 -0.28027,-0.443762 -0.11678,-0.233559 -0.23356,-0.467118 l -0.0934,0.02336 q 0,0.280271 0,0.560541 0,0.280271 0,0.583898 v 8.524903 q 0,0.747389 -1.40135,0.747389 h -0.67732 q -1.40136,0 -1.40136,-0.747389 V -38.88121 q 0,-0.747388 1.40136,-0.747388 h 1.23786 q 0.51383,0 0.88752,0.140135 0.39706,0.140135 0.5839,0.490474 l 3.87708,6.913346 q 0.0467,0.09342 0.11678,0.186847 0.0701,0.09342 0.11678,0.210204 0.0467,-0.11678 0.0934,-0.210204 0.0701,-0.09342 0.11678,-0.186847 l 3.94715,-6.913346 q 0.18685,-0.350339 0.56054,-0.490474 0.39705,-0.140135 0.91088,-0.140135 h 1.21451 q 1.40135,0 1.40135,0.747388 v 14.947776 q 0,0.747389 -1.40135,0.747389 h -0.67732 q -1.40136,0 -1.40136,-0.747389 v -8.524903 q 0,-0.303627 0,-0.583898 0,-0.28027 0,-0.560541 l -0.0934,-0.02336 q -0.11678,0.233559 -0.25691,0.467118 -0.11678,0.210203 -0.25692,0.443762 l -2.87277,5.138298 q -0.32699,0.443762 -0.93424,0.443762 z" />
      <path
         id="path67"
         style="font-style:normal;font-variant:normal;font-weight:bold;font-stretch:normal;font-family:Asap;-inkscape-font-specification:'Asap Bold';stroke-width:0.583899"
         d="m -110.29753,-23.186049 q -1.40135,0 -1.40135,-0.747389 v -14.714217 q 0,-0.934236 0.93423,-0.934236 h 4.90474 q 0.77075,0 1.72834,0.186848 0.95759,0.163491 1.82176,0.677321 0.88752,0.51383 1.44806,1.541489 0.56055,1.02766 0.56055,2.709284 0,1.354643 -0.42041,2.265523 -0.42041,0.91088 -1.09773,1.494777 -0.65396,0.560542 -1.40135,0.864169 -0.72403,0.28027 -1.378,0.39705 -0.65396,0.09342 -1.02766,0.09342 h -2.47572 v 5.418568 q 0,0.747389 -1.40136,0.747389 z m 2.19546,-9.248936 h 2.07867 q 0.32698,0 0.67732,-0.07007 0.3737,-0.09342 0.67732,-0.303627 0.30363,-0.233559 0.49048,-0.630609 0.18684,-0.39705 0.18684,-1.02766 0,-0.840812 -0.32698,-1.284574 -0.32698,-0.443762 -0.7941,-0.607253 -0.46712,-0.163492 -0.91088,-0.163492 h -2.07867 z" />
      <path
         id="path69"
         style="font-style:normal;font-variant:normal;font-weight:bold;font-stretch:normal;font-family:Asap;-inkscape-font-specification:'Asap Bold';stroke-width:0.583899"
         d="m -99.979698,-23.186049 q -1.424712,0 -1.424712,-0.51383 0,-0.09342 0.0234,-0.186847 0.0467,-0.116779 0.0701,-0.233559 l 5.138294,-15.017843 q 0.186847,-0.490474 1.331286,-0.490474 h 1.214507 q 1.167795,0 1.331286,0.490474 l 5.138298,15.017843 q 0.07007,0.233559 0.07007,0.420406 0,0.51383 -1.167795,0.51383 h -1.027659 q -0.51383,0 -0.864169,-0.09342 -0.350338,-0.11678 -0.443762,-0.397051 l -0.934236,-2.84942 h -5.511992 l -0.934236,2.84942 q -0.09342,0.256915 -0.373695,0.373695 -0.28027,0.116779 -0.700677,0.116779 z m 3.947147,-6.422872 h 3.503385 l -1.331286,-4.157351 q -0.116779,-0.373694 -0.210203,-0.747388 -0.07007,-0.373695 -0.140135,-0.747389 h -0.09342 q -0.07007,0.373694 -0.140135,0.747389 -0.07007,0.373694 -0.210203,0.747388 z" />
      <path
         id="path71"
         style="font-style:normal;font-variant:normal;font-weight:bold;font-stretch:normal;font-family:Asap;-inkscape-font-specification:'Asap Bold';stroke-width:0.583899"
         d="m -84.067762,-23.186049 q -1.401354,0 -1.401354,-0.747389 v -14.714217 q 0,-0.934236 0.934236,-0.934236 h 4.5544 q 3.036267,0 4.414265,1.14444 1.401354,1.144439 1.401354,3.24647 0,1.354642 -0.770744,2.312234 -0.747389,0.934236 -1.961896,1.401354 v 0.09342 q 0.443762,0.163492 0.91088,0.794101 0.467118,0.607253 0.770745,1.354642 l 2.055319,5.138298 q 0.11678,0.303627 0.11678,0.443762 0,0.467118 -1.401354,0.467118 h -0.957592 q -0.51383,0 -0.887525,-0.09342 -0.350338,-0.11678 -0.467118,-0.397051 l -1.845116,-4.5544 q -0.350338,-0.700677 -0.7941,-1.051016 -0.420406,-0.350338 -1.564845,-0.350338 h -0.910881 v 5.698839 q 0,0.747389 -1.401354,0.747389 z m 2.195454,-9.552563 h 2.218811 q 0.490474,0 0.887524,-0.256915 0.420406,-0.280271 0.653965,-0.724033 0.256915,-0.467118 0.256915,-1.027659 0,-0.817457 -0.537185,-1.284575 -0.51383,-0.490474 -1.42471,-0.490474 h -2.05532 z" />
      <path
         id="path73"
         style="font-style:normal;font-variant:normal;font-weight:bold;font-stretch:normal;font-family:Asap;-inkscape-font-specification:'Asap Bold';stroke-width:0.583899"
         d="m -71.423458,-23.186049 q -1.424709,0 -1.424709,-0.51383 0,-0.09342 0.02336,-0.186847 0.04671,-0.116779 0.07007,-0.233559 l 5.138298,-15.017843 q 0.186847,-0.490474 1.331286,-0.490474 h 1.214507 q 1.167795,0 1.331287,0.490474 l 5.138297,15.017843 q 0.07007,0.233559 0.07007,0.420406 0,0.51383 -1.167795,0.51383 h -1.027659 q -0.51383,0 -0.864169,-0.09342 -0.350338,-0.11678 -0.443762,-0.397051 l -0.934236,-2.84942 h -5.511992 l -0.934236,2.84942 q -0.09342,0.256915 -0.373695,0.373695 -0.28027,0.116779 -0.700677,0.116779 z m 3.947148,-6.422872 h 3.503385 l -1.331287,-4.157351 q -0.116779,-0.373694 -0.210203,-0.747388 -0.07007,-0.373695 -0.140135,-0.747389 h -0.09342 q -0.07007,0.373694 -0.140135,0.747389 -0.07007,0.373694 -0.210203,0.747388 z" />
      <path
         id="path75"
         style="font-style:normal;font-variant:normal;font-weight:bold;font-stretch:normal;font-family:Asap;-inkscape-font-specification:'Asap Bold';stroke-width:0.583899"
         d="m -53.434309,-23.186049 q -1.401354,0 -1.401354,-0.747389 v -12.58883 h -3.713588 q -0.700677,0 -0.700677,-1.167795 v -0.724033 q 0,-1.167795 0.700677,-1.167795 h 11.047341 q 0.700677,0 0.700677,1.167795 v 0.724033 q 0,1.167795 -0.700677,1.167795 h -3.713588 v 12.58883 q 0,0.747389 -1.401354,0.747389 z" />
      <path
         id="path77"
         style="font-style:normal;font-variant:normal;font-weight:bold;font-stretch:normal;font-family:Asap;-inkscape-font-specification:'Asap Bold';stroke-width:0.583899"
         d="m -43.722269,-23.162693 q -1.401354,0 -1.401354,-0.770745 v -14.947776 q 0,-0.770744 1.401354,-0.770744 h 0.817456 q 1.401354,0 1.401354,0.770744 v 14.947776 q 0,0.770745 -1.401354,0.770745 z" />
      <path
         id="path79"
         style="font-style:normal;font-variant:normal;font-weight:bold;font-stretch:normal;font-family:Asap;-inkscape-font-specification:'Asap Bold';stroke-width:0.583899"
         d="m -33.394217,-23.186049 q -0.51383,0 -0.864168,-0.09342 -0.350339,-0.11678 -0.443763,-0.397051 l -5.044874,-15.017843 q -0.02336,-0.11678 -0.07007,-0.210203 -0.02336,-0.11678 -0.02336,-0.210204 0,-0.513829 1.424709,-0.513829 h 0.817457 q 0.51383,0 0.887524,0.140135 0.373695,0.140135 0.490474,0.537186 l 2.896132,9.272292 q 0.186847,0.560542 0.326982,1.167795 0.163491,0.607253 0.186847,0.957592 h 0.09342 q 0.04671,-0.350339 0.186847,-0.957592 0.163491,-0.607253 0.326983,-1.167795 l 2.989555,-9.272292 q 0.116779,-0.373695 0.490474,-0.51383 0.373694,-0.163491 0.887524,-0.163491 h 0.677321 q 1.401354,0 1.401354,0.513829 0,0.163492 -0.07007,0.420407 l -5.044874,15.017843 q -0.09342,0.280271 -0.443762,0.397051 -0.350339,0.09342 -0.864168,0.09342 z" />
      <path
         id="path81"
         style="font-style:normal;font-variant:normal;font-weight:bold;font-stretch:normal;font-family:Asap;-inkscape-font-specification:'Asap Bold';stroke-width:0.583899"
         d="m -24.848514,-23.186049 q -1.42471,0 -1.42471,-0.51383 0,-0.09342 0.02336,-0.186847 0.04671,-0.116779 0.07007,-0.233559 l 5.138298,-15.017843 q 0.186847,-0.490474 1.331286,-0.490474 h 1.214507 q 1.167795,0 1.331286,0.490474 l 5.138298,15.017843 q 0.07007,0.233559 0.07007,0.420406 0,0.51383 -1.167795,0.51383 h -1.02766 q -0.51383,0 -0.864168,-0.09342 -0.350339,-0.11678 -0.443762,-0.397051 l -0.934236,-2.84942 h -5.511993 l -0.934236,2.84942 q -0.09342,0.256915 -0.373694,0.373695 -0.280271,0.116779 -0.700677,0.116779 z m 3.947147,-6.422872 h 3.503385 l -1.331286,-4.157351 q -0.11678,-0.373694 -0.210203,-0.747388 -0.07007,-0.373695 -0.140136,-0.747389 h -0.09342 q -0.07007,0.373694 -0.140136,0.747389 -0.07007,0.373694 -0.210203,0.747388 z" />
    </g>
  </g>
</svg>
