<?xml version="1.0" encoding="UTF-8" standalone="no"?>
<svg
   xmlns:dc="http://purl.org/dc/elements/1.1/"
   xmlns:cc="http://creativecommons.org/ns#"
   xmlns:rdf="http://www.w3.org/1999/02/22-rdf-syntax-ns#"
   xmlns:svg="http://www.w3.org/2000/svg"
   xmlns="http://www.w3.org/2000/svg"
   xmlns:sodipodi="http://sodipodi.sourceforge.net/DTD/sodipodi-0.dtd"
   xmlns:inkscape="http://www.inkscape.org/namespaces/inkscape"
   inkscape:export-ydpi="96"
   inkscape:export-xdpi="96"
   inkscape:export-filename="./favicon.png"
   sodipodi:docname="favicon.svg"
   inkscape:version="1.0 (4035a4f, 2020-05-01)"
   id="svg8"
   version="1.1"
   viewBox="0 0 34.395832 34.395832"
   height="34.395832mm"
   width="34.395832mm">
  <defs
     id="defs2" />
  <sodipodi:namedview
     inkscape:document-rotation="0"
     inkscape:window-maximized="1"
     inkscape:window-y="0"
     inkscape:window-x="0"
     inkscape:window-height="744"
     inkscape:window-width="1366"
     showgrid="false"
     inkscape:current-layer="layer1"
     inkscape:document-units="mm"
     inkscape:cy="50.400241"
     inkscape:cx="93.575958"
     inkscape:zoom="2.1370869"
     inkscape:pageshadow="2"
     inkscape:pageopacity="0"
     borderopacity="1.0"
     bordercolor="#666666"
     pagecolor="#d2d2d2"
     id="base" />
  <metadata
     id="metadata5">
    <rdf:RDF>
      <cc:Work
         rdf:about="">
        <dc:format>image/svg+xml</dc:format>
        <dc:type
           rdf:resource="http://purl.org/dc/dcmitype/StillImage" />
        <dc:title />
      </cc:Work>
    </rdf:RDF>
  </metadata>
  <g
     transform="translate(79.170273,-16.778708)"
     id="layer1"
     inkscape:groupmode="layer"
     inkscape:label="Capa 1">
    <rect
       ry="6.8239279"
       y="16.778708"
       x="-79.170273"
       height="34.395832"
       width="34.395832"
       id="rect7"
       style="fill:#1c1c24;fill-rule:evenodd;stroke-width:0.88504;stroke-linecap:round;stroke-opacity:0.994789;stop-color:#000000" />
    <g
       transform="translate(2.0373534e-7,-0.35935396)"
       id="g34">
      <path
         d="m -73.874746,21.014032 h 4.786082 c 0.924342,0 1.668488,0.744146 1.668488,1.668489 v 21.719414 c 0,0.924342 -0.744146,1.668488 -1.668488,1.668488 h -4.786082 c -0.924342,0 -1.668488,-0.744146 -1.668488,-1.668488 V 22.682521 c 0,-0.924343 0.744146,-1.668489 1.668488,-1.668489 z"
         style="fill:#aad400;fill-rule:evenodd;stroke-width:0.209015;stroke-linecap:round;stroke-opacity:0.994789;stop-color:#000000"
         id="rect14"
         sodipodi:nodetypes="sssssssss" />
      <path
         d="m -64.365392,21.014032 h 4.786081 c 0.924343,0 1.668488,0.744146 1.668488,1.668489 v 23.306914 c 0,0.924342 -0.744145,1.668488 -1.668488,1.668488 h -4.786081 c -0.924342,0 -1.668488,-0.744146 -1.668488,-1.668488 V 22.682521 c 0,-0.924343 0.744146,-1.668489 1.668488,-1.668489 z"
         style="fill:#37c8ab;fill-rule:evenodd;stroke-width:0.209015;stroke-linecap:round;stroke-opacity:0.994789;stop-color:#000000"
         id="rect16"
         sodipodi:nodetypes="sssssssss" />
      <path
         d="m -54.85605,21.014032 h 4.786081 c 0.924343,0 1.668489,0.744146 1.668489,1.668489 v 19.073581 c 0,0.924342 -0.744146,1.668488 -1.668489,1.668488 h -4.786081 c -0.924342,0 -1.668488,-0.744146 -1.668488,-1.668488 V 22.682521 c 0,-0.924343 0.744146,-1.668489 1.668488,-1.668489 z"
         style="fill:#d35f5f;fill-rule:evenodd;stroke-width:0.209015;stroke-linecap:round;stroke-opacity:0.994789;stop-color:#000000"
         id="rect18"
         sodipodi:nodetypes="sssssssss" />
    </g>
  </g>
</svg>
